<svg xmlns="http://www.w3.org/2000/svg" width="1280" height="400" viewBox="0 0 1280 400" font-family="'JetBrains Mono','DejaVu Sans Mono',monospace">
  <defs>
    <linearGradient id="bg" x1="0" y1="0" x2="1" y2="1">
      <stop offset="0" stop-color="#0A1020"/>
      <stop offset="1" stop-color="#05070E"/>
    </linearGradient>
    <radialGradient id="glowBlue" cx="16%" cy="14%" r="60%">
      <stop offset="0" stop-color="#0052FF" stop-opacity="0.42"/>
      <stop offset="1" stop-color="#0052FF" stop-opacity="0"/>
    </radialGradient>
    <radialGradient id="glowYellow" cx="90%" cy="94%" r="60%">
      <stop offset="0" stop-color="#F0B90B" stop-opacity="0.34"/>
      <stop offset="1" stop-color="#F0B90B" stop-opacity="0"/>
    </radialGradient>
    <linearGradient id="title" x1="0" y1="0" x2="1" y2="0">
      <stop offset="0" stop-color="#3D7BFF"/>
      <stop offset="0.5" stop-color="#9FBCFF"/>
      <stop offset="1" stop-color="#F0B90B"/>
    </linearGradient>
    <linearGradient id="eth" x1="0" y1="0" x2="0" y2="1">
      <stop offset="0" stop-color="#0052FF"/>
      <stop offset="1" stop-color="#F0B90B"/>
    </linearGradient>
    <linearGradient id="sweep" x1="0" y1="0" x2="1" y2="0">
      <stop offset="0" stop-color="#0052FF" stop-opacity="0"/>
      <stop offset="0.5" stop-color="#7FB0FF" stop-opacity="0.55"/>
      <stop offset="1" stop-color="#F0B90B" stop-opacity="0"/>
    </linearGradient>
    <pattern id="grid" width="40" height="40" patternUnits="userSpaceOnUse">
      <path d="M40 0H0V40" fill="none" stroke="#5B8CFF" stroke-opacity="0.08" stroke-width="1"/>
    </pattern>
    <filter id="soft" x="-30%" y="-30%" width="160%" height="160%">
      <feGaussianBlur stdDeviation="6"/>
    </filter>
  </defs>

  <rect width="1280" height="400" rx="22" fill="url(#bg)"/>
  <rect width="1280" height="400" rx="22" fill="url(#grid)"/>
  <rect width="1280" height="400" rx="22" fill="url(#glowBlue)"/>
  <rect width="1280" height="400" rx="22" fill="url(#glowYellow)"/>
  <rect x="1" y="1" width="1278" height="398" rx="22" fill="none" stroke="#FFFFFF" stroke-opacity="0.10"/>

  <rect x="540" y="20" width="200" height="360" fill="url(#sweep)" opacity="0.6"/>

  <g transform="translate(150 200)">
    <g filter="url(#soft)" opacity="0.55">
      <polygon points="0,-96 58,8 0,46 -58,8" fill="#0052FF"/>
      <polygon points="0,60 58,22 0,100 -58,22" fill="#F0B90B"/>
    </g>
    <polygon points="0,-96 58,8 0,46 -58,8" fill="url(#eth)" opacity="0.95"/>
    <polygon points="0,-96 58,8 0,-22" fill="#0052FF" opacity="0.55"/>
    <polygon points="0,60 58,22 0,100 -58,22" fill="url(#eth)" opacity="0.88"/>
    <polygon points="0,60 58,22 0,74" fill="#F0B90B" opacity="0.5"/>
  </g>

  <text x="300" y="132" font-size="76" font-weight="800" letter-spacing="1" fill="url(#title)">Sally Vanity</text>
  <text x="302" y="180" font-size="29" font-weight="700" letter-spacing="7" fill="#FFFFFF" opacity="0.92">ETH ADDRESS GENERATOR</text>
  <text x="304" y="218" font-size="15.5" fill="#FFFFFF" opacity="0.6">CUDA secp256k1 · Keccak-256 · BIP39 seeds · CREATE / CREATE2 · GPU · CPU · Hybrid · 100% offline</text>

  <g transform="translate(300 250)">
    <rect width="640" height="64" rx="12" fill="#0B1224" stroke="#1E2A45" stroke-width="1.2"/>
    <circle cx="22" cy="22" r="5" fill="#FF5F56"/>
    <circle cx="40" cy="22" r="5" fill="#FFBD2E"/>
    <circle cx="58" cy="22" r="5" fill="#27C93F"/>
    <text x="84" y="26" font-size="13" fill="#FFFFFF" opacity="0.45">vanity --prefix F0B90B</text>
    <text x="22" y="50" font-size="20" font-weight="700" letter-spacing="0.5">
      <tspan fill="#FFFFFF" opacity="0.55">0x</tspan><tspan fill="#F0B90B">F0B90B</tspan><tspan fill="#FFFFFF" opacity="0.8">9c4a7eD3b1Fa</tspan><tspan fill="#0052FF">0052FF</tspan>
    </text>
    <g transform="translate(516 14)">
      <rect width="108" height="34" rx="8" fill="#27C93F" fill-opacity="0.12" stroke="#27C93F" stroke-opacity="0.6"/>
      <circle cx="20" cy="17" r="5" fill="#27C93F"/>
      <text x="36" y="22" font-size="14" font-weight="700" fill="#5CE07A">MATCH ✓</text>
    </g>
  </g>

  <g transform="translate(300 332)" font-size="13.5" font-weight="600">
    <g>
      <rect width="74" height="30" rx="8" fill="#0052FF" fill-opacity="0.16" stroke="#3D7BFF" stroke-opacity="0.7"/>
      <text x="37" y="20" text-anchor="middle" fill="#9FBCFF">GPU</text>
    </g>
    <g transform="translate(86 0)">
      <rect width="74" height="30" rx="8" fill="#F0B90B" fill-opacity="0.14" stroke="#F0B90B" stroke-opacity="0.7"/>
      <text x="37" y="20" text-anchor="middle" fill="#FFD24A">CPU</text>
    </g>
    <g transform="translate(172 0)">
      <rect width="96" height="30" rx="8" fill="#0052FF" fill-opacity="0.16" stroke="#3D7BFF" stroke-opacity="0.7"/>
      <text x="48" y="20" text-anchor="middle" fill="#9FBCFF">Hybrid</text>
    </g>
    <g transform="translate(290 0)">
      <rect width="150" height="30" rx="8" fill="#F0B90B" fill-opacity="0.14" stroke="#F0B90B" stroke-opacity="0.7"/>
      <text x="75" y="20" text-anchor="middle" fill="#FFD24A">BIP39 · importable</text>
    </g>
  </g>

  <text x="1238" y="46" text-anchor="end" font-size="13.5" letter-spacing="1.5" fill="#FFFFFF" opacity="0.5">10 languages · EN DE ES FR PT RU 中文 日本語 हिन्दी العربية</text>
</svg>
