<svg xmlns="http://www.w3.org/2000/svg" width="512" height="512" viewBox="0 0 512 512">
  <defs>
    <linearGradient id="bg" x1="0" y1="0" x2="1" y2="1">
      <stop offset="0" stop-color="#141a26"/>
      <stop offset="1" stop-color="#05070d"/>
    </linearGradient>
    <radialGradient id="glow" cx="50%" cy="30%" r="65%">
      <stop offset="0" stop-color="#0052ff" stop-opacity="0.35"/>
      <stop offset="1" stop-color="#0052ff" stop-opacity="0"/>
    </radialGradient>
    <linearGradient id="eth" x1="0" y1="0" x2="0" y2="1">
      <stop offset="0" stop-color="#5b8cff"/>
      <stop offset="1" stop-color="#f0b90b"/>
    </linearGradient>
  </defs>

  <rect x="16" y="16" width="480" height="480" rx="108" fill="url(#bg)"/>
  <rect x="16" y="16" width="480" height="480" rx="108" fill="url(#glow)"/>
  <rect x="16.5" y="16.5" width="479" height="479" rx="107.5" fill="none" stroke="#ffffff" stroke-opacity="0.10" stroke-width="1"/>
  <rect x="16" y="16" width="480" height="3" rx="1.5" fill="#3d7bff" opacity="0.6"/>

  <g transform="translate(256 250) scale(1.95)">
    <polygon points="0,-92 56,8 0,44 -56,8" fill="url(#eth)" opacity="0.95"/>
    <polygon points="0,-92 56,8 0,-22" fill="#0052ff" opacity="0.6"/>
    <polygon points="0,58 56,22 0,96 -56,22" fill="url(#eth)" opacity="0.88"/>
    <polygon points="0,58 56,22 0,72" fill="#f0b90b" opacity="0.5"/>
  </g>
</svg>
